<svg xmlns="http://www.w3.org/2000/svg" xmlns:svg="http://www.w3.org/2000/svg" id="svg2" width="1800" height="2360" version="1.1"><defs id="defs4"><clipPath id="clipPath3062" clipPathUnits="userSpaceOnUse"><path id="path3064" d="m 0,1287.129 2649.265,0 L 2649.265,0 0,0 0,1287.129 z"/></clipPath><linearGradient id="linearGradient3048" x1="0" x2="1" y1="0" y2="0" gradientTransform="matrix(-4.58e-5,-918.34515,-918.34515,4.58e-5,913.35986,1099.8257)" gradientUnits="userSpaceOnUse" spreadMethod="pad"><stop id="stop3050" offset="0" style="stop-opacity:1;stop-color:#29abe2"/><stop id="stop3052" offset=".448" style="stop-opacity:1;stop-color:#0071bc"/><stop id="stop3054" offset="1" style="stop-opacity:1;stop-color:#1b1464"/></linearGradient><linearGradient id="linearGradient3026" x1="0" x2="1" y1="0" y2="0" gradientTransform="matrix(-4.58e-5,-918.33362,-918.33362,4.58e-5,611.42432,1099.8164)" gradientUnits="userSpaceOnUse" spreadMethod="pad"><stop id="stop3028" offset="0" style="stop-opacity:1;stop-color:#29abe2"/><stop id="stop3030" offset=".448" style="stop-opacity:1;stop-color:#0071bc"/><stop id="stop3032" offset="1" style="stop-opacity:1;stop-color:#1b1464"/></linearGradient></defs><metadata id="metadata7"/><g id="layer1" transform="translate(0,1307.6378)"><rect style="fill:#fff;fill-opacity:1;stroke:none" id="rect4347" width="1800" height="2348.572" x="0" y="-1307.638" ry=".844"/><rect style="fill:#3e6999;fill-opacity:1;stroke:none" id="rect3125" width="1800" height="123.357" x="0" y="929.633" ry="5.128"/><rect id="rect3050" width="1800" height="35.697" x="0" y="897.198" ry=".235" style="fill:#e2e6eb;fill-opacity:1;stroke:none"/><g id="g3012" transform="matrix(0.43814193,0,0,-0.43814193,426.09504,160.4566)"><g id="g3014"><g id="g3016"><g id="g3022"><g id="g3024"><path id="path3034" d="m 365.999,1217.508 c -5.635,-2.283 -10.139,-5.404 -13.555,-8.4 l 0,0 c -1.685,-1.472 -3.281,-3.086 -4.422,-4.362 l 0,0 -1.669,-1.917 c -1.274,-1.498 -2.353,-2.809 -3.459,-4.208 l 0,0 c -4.362,-5.53 -8.08,-11.005 -11.469,-16.481 l 0,0 c -6.732,-10.95 -12.191,-21.919 -17.023,-32.977 l 0,0 c -9.56,-22.125 -16.48,-44.624 -21.697,-67.355 l 0,0 c -5.19,-22.731 -8.561,-45.703 -10.361,-68.674 l 0,0 c -3.595,-45.944 -0.759,-91.916 7.481,-136.102 l 0,0 c 6.438,-34.618 16.283,-68.068 28.662,-99.842 l 0,0 c -8.66,2.382 -18.175,4.531 -28.627,6.492 l 0,0 c -12.992,2.373 -27.128,4.646 -44.204,5.725 l 0,0 c -8.633,0.447 -17.952,0.75 -29.688,-0.838 l 0,0 c -5.858,-0.856 -12.475,-2.212 -20.001,-5.225 l 0,0 c -7.429,-2.943 -16.016,-7.973 -23.186,-15.41 l 0,0 c -7.223,-7.366 -12.28,-16.418 -15.232,-24.488 l 0,0 c -2.987,-8.169 -4.361,-15.597 -5.145,-22.365 l 0,0 c -1.462,-13.573 -0.83,-25.122 0.204,-36.322 l 0,0 c 1.089,-11.157 2.81,-21.812 4.798,-32.389 l 0,0 c 1.972,-10.443 4.361,-21.313 7.269,-32.255 l 0,0 c 5.779,-21.92 13.805,-44.687 25.255,-66.784 l 0,0 C 201.326,531.242 216.299,510 234.205,491.683 l 0,0 c 17.863,-18.388 38.427,-33.78 59.901,-46.088 l 0,0 c 21.509,-12.358 43.874,-21.793 66.168,-29.212 l 0,0 c 44.695,-14.769 88.972,-21.902 130.233,-26.361 l 0,0 c 9.239,-0.981 18.317,-1.783 27.27,-2.515 l 0,0 c -9.551,-15.409 -19.44,-31.836 -28.794,-49.368 l 0,0 c -10.55,-19.742 -20.439,-40.914 -28.064,-63.137 l 0,0 c -7.661,-22.187 -12.922,-45.497 -14.83,-68.006 l 0,0 c -1.935,-22.508 -0.598,-43.964 3.201,-62.423 l 0,0 c 3.782,-18.495 9.863,-34.102 17.586,-46.087 l 0,0 c 7.713,-12.021 17.076,-20.474 27.975,-24.844 l 0,0 c -7.803,5.654 -14.135,15.125 -18.88,27.627 l 0,0 c -4.726,12.52 -7.847,28.091 -8.766,45.605 l 0,0 c -0.928,17.478 0.473,36.901 4.585,56.359 l 0,0 c 4.057,19.476 10.87,38.863 19.395,56.806 l 0,0 c 17.086,36.045 40.513,66.525 59.82,90.015 l 0,0 c 19.413,23.452 57.091,74.282 60.81,81.238 l 0,0 c 26.208,-18.655 50.652,-34.761 72.277,-48.85 l 0,0 c -10.497,25.38 -28.545,53.096 -55.317,84.415 l 0,0 c -13.385,15.695 -28.92,32.335 -46.612,50.384 l 0,0 c -17.692,18.049 -37.516,37.534 -59.276,59.285 l 0,0 c -10.808,10.924 -32.291,30.72 -58.731,60.39 l 0,0 c -26.307,29.66 -57.581,69.505 -84.665,120.798 l 0,0 c -13.527,25.612 -25.887,54.05 -35.75,85.022 l 0,0 c -9.872,30.962 -17.211,64.456 -20.76,99.662 l 0,0 c -3.558,35.19 -3.345,72.073 1.792,109.224 l 0,0 c 2.569,18.566 6.359,37.186 11.682,55.565 l 0,0 c 5.36,18.353 12.119,36.546 21.411,53.747 l 0,0 c 2.328,4.299 4.825,8.525 7.589,12.627 l 0,0 c 1.365,2.051 2.819,4.085 4.326,6.064 l 0,0 c 0.749,0.964 1.569,2.016 2.327,2.925 l 0,0 c 0.857,1.035 1.908,2.151 3.139,3.068 l 0,0 c 2.417,1.9 5.903,3.059 9.185,2.836 l 0,0 c 3.273,-0.197 6.136,-1.337 8.606,-2.674 l 0,0 c 4.93,-2.748 8.766,-6.306 12.368,-9.953 l 0,0 c 7.09,-7.349 13.029,-15.339 18.692,-23.418 l 0,0 c 5.645,-8.107 10.933,-16.372 16.043,-24.684 l 0,0 c 20.349,-33.334 38.56,-67.302 56.546,-100.537 l 0,0 c 35.707,-66.597 69.834,-130.617 102.946,-187.931 l 0,0 c 33.004,-57.376 64.885,-108.029 93.546,-149.37 l 0,0 c 28.572,-41.486 53.996,-73.446 71.537,-96.971 l 0,0 c -10.148,18.156 -24.8,40.611 -42.091,68.077 l 0,0 c 3.165,3.363 6.34,6.707 9.506,9.971 l 0,0 c 19.226,19.806 38.48,37.899 57.902,52.346 l 0,0 c 19.351,14.384 39.024,25.005 57.465,28.349 l 0,0 c 1.169,0.223 2.328,0.384 3.451,0.562 l 0,0 1.499,0.213 c 0.437,0.072 1.337,0.117 1.962,0.179 l 0,0 0.526,0.045 0.267,0.017 0.125,0.009 c 0.268,0 -0.215,0 -0.125,0.009 l 0,0 1.008,0.071 1.971,0.127 3.941,0.222 c 5.217,0.267 10.291,0.437 15.223,0.463 l 0,0 c 9.863,0.08 19.164,-0.357 27.77,-1.363 l 0,0 c 17.228,-1.971 31.514,-6.573 42.207,-12.967 l 0,0 c 8.534,-4.914 14.669,-10.907 20.091,-15.329 l 0,0 c 0.901,-1.998 1.658,-4.103 2.194,-6.368 l 0,0 c 3.326,-14.027 -4.254,-23.356 -8.855,-27.537 l 0,0 c -28.02,-18.941 -63.262,-48.495 -95.866,-87.358 l 0,0 C 841.212,574.474 818.962,541.372 801.751,503.9 l 0,0 c -8.623,-18.745 -15.963,-38.577 -21.635,-59.409 l 0,0 c -2.826,-10.434 -5.261,-21.099 -7.249,-31.997 l 0,0 c -0.989,-5.439 -1.873,-10.95 -2.685,-16.48 l 0,0 -1.14,-8.311 c -0.339,-2.71 -0.768,-5.582 -1,-7.971 l 0,0 c 1.391,1.533 3.023,3.602 4.477,5.349 l 0,0 c 1.472,1.819 2.908,3.533 4.298,5.12 l 0,0 c 2.81,3.21 5.458,5.938 7.972,8.24 l 0,0 c 5.057,4.584 9.632,7.419 13.804,8.952 l 0,0 c 8.384,3.069 15.268,0.911 21.154,-2.639 l 0,0 c 11.753,-7.099 18.004,41.092 24.934,93.492 l 0,0 c 6.357,47.978 33.851,111.176 122.349,188.734 l 0,0 c 29.054,3.032 104.275,31.783 104.275,31.783 l 0,0 -111.784,25.245 c -1.363,1.632 -2.835,3.29 -4.476,4.949 l 0,0 c -5.073,5.136 -11.468,10.202 -19.039,14.625 l 0,0 c -7.562,4.441 -16.265,8.24 -25.772,11.307 l 0,0 c -9.506,3.077 -19.806,5.423 -30.695,7.09 l 0,0 c -5.448,0.838 -11.031,1.507 -16.756,2.006 l 0,0 -4.307,0.357 -2.176,0.152 -1.079,0.071 -1.32,0.044 c -0.75,0.036 -1.266,0.089 -2.229,0.089 l 0,0 -2.711,0.009 c -1.695,-0.035 -3.37,-0.062 -5.065,-0.168 l 0,0 c -13.528,-0.785 -27.03,-4.28 -39.809,-9.516 l 0,0 c -12.814,-5.234 -25.014,-12.181 -36.598,-20.198 l 0,0 c -23.185,-16.097 -44.035,-36.384 -63.002,-58.964 l 0,0 c -0.669,-0.793 -1.33,-1.605 -1.98,-2.407 l 0,0 c -25.746,42.091 -55.157,93.671 -86.244,153.099 l 0,0 c -31.46,59.756 -64.349,127.325 -100.046,199.54 l 0,0 c -8.962,18.049 -18.147,36.384 -27.814,54.986 l 0,0 c -9.711,18.603 -19.752,37.418 -31.408,56.68 l 0,0 c -5.903,9.668 -12.111,19.388 -20.065,29.705 l 0,0 c -4.066,5.19 -8.444,10.514 -14.839,16.453 l 0,0 c -3.264,2.97 -7.018,6.136 -12.556,9.453 l 0,0 c -2.792,1.641 -6.091,3.318 -10.264,4.78 l 0,0 c -4.094,1.427 -9.283,2.622 -15.205,2.72 l 0,0 c -0.298,0.01 -0.598,0.01 -0.898,0.01 l 0,0 c -5.674,0 -11.868,-1.187 -17.169,-3.372 M 522.558,441.12 c -20.885,0.249 -47.353,0.802 -77.441,3.836 l 0,0 c -30.044,3.084 -63.869,8.542 -98.299,20.349 l 0,0 c -17.176,5.903 -34.476,13.483 -51.108,23.311 l 0,0 c -16.604,9.827 -32.513,21.973 -46.64,36.491 l 0,0 c -14.142,14.482 -26.431,31.283 -36.418,49.323 l 0,0 c -10.032,18.031 -17.817,37.196 -23.98,56.35 l 0,0 c -3.113,9.578 -5.77,19.138 -8.186,28.645 l 0,0 c -2.399,9.541 -4.522,19.118 -6.073,28.936 l 0,0 c -1.516,9.837 -2.605,19.87 -2.006,30.82 l 0,0 c 0.32,5.476 1.105,11.254 2.951,17.318 l 0,0 c 1.828,6.037 4.94,12.476 9.632,18.005 l 0,0 c 4.654,5.547 10.567,9.747 16.175,12.485 l 0,0 c 5.672,2.782 11.068,4.369 16.062,5.493 l 0,0 c 10.004,2.176 18.753,2.693 26.975,2.979 l 0,0 c 16.372,0.409 30.686,-0.393 43.821,-1.276 l 0,0 c 12.11,-0.883 23.098,-1.944 32.977,-3.291 l 0,0 c 2.676,-6.652 5.441,-13.269 8.366,-19.76 l 0,0 c 17.585,-39.346 39.023,-75.641 62.512,-108.556 l 0,0 C 438.964,576.633 493.601,524.286 544.941,482.212 l 0,0 c 6.724,-5.511 13.412,-10.843 20.029,-16.015 l 0,0 c -3.852,-7.741 -8.597,-16.176 -14.019,-25.255 l 0,0 c -7.714,0.071 -17.265,0.071 -28.393,0.178" style="fill:url(#linearGradient3026);stroke:none"/></g></g></g></g><g id="g3036"><g id="g3038"><g id="g3044"><g id="g3046"><path id="path3056" d="m 895.145,712.787 c 0,-10.05 8.16,-18.2 18.219,-18.2 l 0,0 c 10.05,0 18.21,8.15 18.21,18.2 l 0,0 c 0,10.059 -8.16,18.219 -18.21,18.219 l 0,0 c -10.059,0 -18.219,-8.16 -18.219,-18.219" style="fill:url(#linearGradient3048);stroke:none"/></g></g></g></g><g id="g3058"><g id="g3060" clip-path="url(#clipPath3062)"><g id="g3066" transform="translate(1378.0977,788.5601)"><path id="path3068" d="m 0,0 c 17.711,0 25.193,-7.482 25.193,-25.192 l 0,-211.349 c 0,-5.903 3.148,-8.658 8.659,-8.658 l 16.132,0 0,-32.666 -37.785,0 c -17.709,0 -25.183,7.483 -25.183,25.193 l 0,211.348 c 0,5.895 -3.147,8.65 -8.659,8.65 l -34.636,0 c -14.954,0 -41.717,-3.148 -41.717,-40.147 l 0,-5.904 47.228,0 0,-30.694 -47.228,0 0,-168.446 -38.176,0 0,168.446 -24.791,0 0,30.694 24.791,0 0,6.697 C -136.172,-6.295 -86.188,0 -60.996,0 L 0,0 z" style="fill:#1a1a1a;fill-opacity:1;fill-rule:nonzero;stroke:none"/></g><g id="g3070" transform="translate(1470.6104,668.5107)"><path id="path3072" d="m 0,0 c 0,5.904 -3.149,8.668 -8.651,8.668 l -16.141,0 0,32.656 37.383,0 c 18.103,0 25.585,-7.472 25.585,-24.398 l 0,-94.456 c 0,-27.546 5.512,-49.581 36.999,-49.581 40.932,0 64.938,35.812 64.938,75.166 l 0,93.269 38.177,0 0,-157.815 c 0,-5.904 3.148,-8.658 8.658,-8.658 l 16.142,0 0,-32.666 -36.616,0 c -16.916,0 -25.184,7.875 -25.184,22.044 l 0,7.483 c 0,6.286 0.393,11.404 0.393,11.404 l -0.785,0 c -8.257,-19.68 -33.852,-45.648 -73.205,-45.648 C 22.828,-162.532 0,-138.919 0,-86.189 L 0,0 z" style="fill:#1a1a1a;fill-opacity:1;fill-rule:nonzero;stroke:none"/></g><g id="g3074" transform="translate(1842.9385,633.4912)"><path id="path3076" d="M 0,0 C -1.177,33.058 -22.044,50.769 -46.835,50.769 -75.95,50.769 -99.573,33.058 -105.478,0 L 0,0 z m -46.442,81.071 c 55.886,0 85.796,-41.717 85.796,-93.279 0,-5.109 -1.177,-15.73 -1.177,-15.73 l -145.224,0 c 2.354,-42.511 33.059,-66.527 68.48,-66.527 34.233,0 58.249,23.222 58.249,23.222 l 16.524,-27.146 c 0,0 -29.517,-29.124 -76.745,-29.124 -62.968,0 -105.861,45.257 -105.861,104.292 0,63.36 43.286,104.292 99.958,104.292" style="fill:#1a1a1a;fill-opacity:1;fill-rule:nonzero;stroke:none"/></g><g id="g3078" transform="translate(1933.0879,668.5107)"><path id="path3080" d="m 0,0 c 0,5.904 -3.147,8.668 -8.66,8.668 l -16.14,0 0,32.656 36.608,0 c 16.923,0 25.191,-7.472 25.191,-22.026 l 0,-7.482 c 0,-6.305 -0.784,-11.414 -0.784,-11.414 l 0.784,0 c 7.865,17.309 31.479,45.649 74.773,45.649 47.219,0 68.481,-25.575 68.481,-76.352 l 0,-86.19 c 0,-5.904 3.147,-8.658 8.658,-8.658 l 16.141,0 0,-32.666 -37.784,0 c -17.71,0 -25.192,7.482 -25.192,25.192 l 0,93.663 c 0,27.947 -5.502,49.983 -37.391,49.983 -30.697,0 -55.095,-20.065 -62.968,-48.798 -2.756,-7.874 -3.54,-16.926 -3.54,-26.771 l 0,-93.269 -38.177,0 L 0,0 z" style="fill:#1a1a1a;fill-opacity:1;fill-rule:nonzero;stroke:none"/></g><g id="g3082" transform="translate(2181.0518,679.1406)"><path id="path3084" d="m 0,0 -25.977,0 0,30.694 26.761,0 0,54.72 37.393,0 0,-54.72 47.619,0 0,-30.694 -47.619,0 0,-91.298 c 0,-39.756 27.546,-44.874 42.108,-44.874 5.511,0 9.051,0.785 9.051,0.785 l 0,-33.843 c 0,0 -5.118,-0.793 -13.384,-0.793 -25.184,0 -75.952,7.874 -75.952,74.39 L 0,0 z" style="fill:#1a1a1a;fill-opacity:1;fill-rule:nonzero;stroke:none"/></g><g id="g3086" transform="translate(2448.2959,610.6621)"><path id="path3088" d="m 0,0 c 0,35.421 -18.496,70.842 -56.673,70.842 -31.086,0 -57.064,-25.977 -57.064,-71.234 0,-43.296 23.215,-71.244 56.28,-71.244 C -27.939,-71.636 0,-50.768 0,0 m -62.575,103.9 c 46.05,0 61.397,-30.695 61.397,-30.695 l 0.785,0 c 0,0 -0.785,5.904 -0.785,13.377 l 0,49.992 c 0,5.895 -3.147,8.65 -8.658,8.65 l -16.142,0 0,32.674 37.784,0 c 17.711,0 25.193,-7.482 25.193,-25.192 l 0,-211.349 c 0,-5.903 3.147,-8.658 8.658,-8.658 l 16.133,0 0,-32.666 -36.599,0 c -17.318,0 -24.398,7.875 -24.398,21.251 0,5.903 0.393,10.238 0.393,10.238 l -0.786,0 c 0,0 -16.533,-36.206 -65.33,-36.206 -53.925,0 -87.767,42.501 -87.767,104.292 0,63.36 37.382,104.292 90.122,104.292" style="fill:#1a1a1a;fill-opacity:1;fill-rule:nonzero;stroke:none"/></g></g></g></g><g id="g3957" transform="matrix(0.86472007,0,0,-0.86472007,929.03733,1030.0007)"><g id="g3959" transform="scale(0.1,0.1)"><path id="path3961" d="m 1986.43,598.617 c 0,20.965 -9.35,30.317 -30.31,30.317 l -550.83,0 c -20.97,0 -30.31,-9.352 -30.31,-30.317 l 0,-36.34 c 0,-20.679 9.63,-30.308 30.31,-30.308 l 217.04,0 0,-317.02 c 0,-20.957 9.35,-30.308 30.32,-30.308 l 56.1,0 c 20.97,0 30.32,9.351 30.32,30.308 l 0,317.02 217.05,0 c 20.67,0 30.31,9.629 30.31,30.308 l 0,36.34" style="fill:#fff;fill-opacity:1;fill-rule:nonzero;stroke:none"/><path id="path3963" d="m 8987.39,599.07 c 0,20.969 -9.35,30.321 -30.31,30.321 l -550.83,0 c -20.96,0 -30.31,-9.352 -30.31,-30.321 l 0,-36.34 c 0,-20.675 9.63,-30.308 30.31,-30.308 l 217.05,0 0,-317.016 c 0,-20.957 9.34,-30.308 30.31,-30.308 l 56.1,0 c 20.97,0 30.32,9.351 30.32,30.308 l 0,317.016 217.05,0 c 20.68,0 30.31,9.633 30.31,30.308 l 0,36.34" style="fill:#fff;fill-opacity:1;fill-rule:nonzero;stroke:none"/><path id="path3965" d="m 2483.37,416.695 -305.67,0 0,115.274 305.67,0 c 34.61,0 56.99,-22.828 56.99,-58.156 0,-35.231 -21.84,-57.118 -56.99,-57.118 z m 175.94,-196.965 -117.58,113.637 0,7.477 4.16,0.531 c 73.38,9.246 110.59,55.934 110.59,138.73 0,95.977 -49.7,148.829 -139.96,148.829 l -424.6,0 c -20.97,0 -30.31,-9.352 -30.31,-30.317 l 0,-383.668 c 0,-20.957 9.34,-30.308 30.31,-30.308 l 56.11,0 c 20.52,0 29.67,9.351 29.67,30.308 l 0,108.614 221.64,0 111.05,-116.813 c 19.38,-18.777 28.23,-22.109 59.04,-22.109 l 79.69,0 c 11.09,0 18.84,7.218 18.84,17.562 0,6.227 -3.07,12.449 -8.65,17.527" style="fill:#fff;fill-opacity:1;fill-rule:nonzero;stroke:none"/><path id="path3967" d="m 3327.19,251.289 c 0,20.402 -9.92,30.32 -30.32,30.32 l -428.7,0 0,84.664 350.29,0 c 17.87,0 25.85,7.969 25.85,25.848 l 0,31.875 c 0,18.125 -7.74,25.856 -25.85,25.856 l -350.29,0 0,82.117 428.7,0 c 20.4,0 30.32,9.91 30.32,30.308 l 0,36.34 c 0,20.684 -9.64,30.317 -30.32,30.317 l -514.48,0 c -20.97,0 -30.32,-9.352 -30.32,-30.317 l 0,-383.668 c 0,-20.957 9.35,-30.308 30.32,-30.308 l 514.48,0 c 20.68,0 30.32,9.632 30.32,30.308 l 0,36.34" style="fill:#fff;fill-opacity:1;fill-rule:nonzero;stroke:none"/><path id="path3969" d="m 4607.55,449.852 -316.21,0 c -22.36,0 -36.8,14.468 -36.8,36.867 0,26.215 18.42,45.25 43.81,45.25 l 377.41,0 c 20.4,0 30.32,9.91 30.32,30.308 l 0,36.34 c 0,20.684 -9.63,30.317 -30.32,30.317 l -381.87,0 c -106.8,0 -156.55,-45.371 -156.55,-142.778 0,-78.426 40.25,-119.883 116.38,-119.883 l 316.22,0 c 22.36,0 37.39,-16.523 37.39,-41.105 0,-26.867 -17.26,-43.559 -45.05,-43.559 l -394.63,0 c -20.39,0 -30.31,-9.918 -30.31,-30.32 l 0,-36.34 c 0,-20.676 9.63,-30.308 30.31,-30.308 l 399.1,0 c 109.58,0 158.45,43.343 158.45,140.527 0,80.406 -41.78,124.684 -117.65,124.684" style="fill:#fff;fill-opacity:1;fill-rule:nonzero;stroke:none"/><path id="path3971" d="m 5413.75,598.617 c 0,20.684 -9.63,30.317 -30.31,30.317 l -52.92,0 c -20.96,0 -30.32,-9.352 -30.32,-30.317 l 0,-201.328 c 0,-77.84 -37.84,-115.68 -115.68,-115.68 l -143.43,0 c -77.84,0 -115.68,37.84 -115.68,115.68 l 0,201.328 c 0,20.684 -9.63,30.317 -30.32,30.317 l -56.1,0 c -20.97,0 -30.32,-9.352 -30.32,-30.317 l 0,-201.328 c 0,-141.101 71.55,-212.648 212.65,-212.648 l 179.78,0 c 141.1,0 212.65,71.547 212.65,212.648 l 0,201.328" style="fill:#fff;fill-opacity:1;fill-rule:nonzero;stroke:none"/><path id="path3973" d="m 5935.55,416.695 -305.66,0 0,115.274 305.66,0 c 35,0 56.73,-21.856 56.73,-57.035 0,-35.922 -21.73,-58.239 -56.73,-58.239 z m 175.95,-196.965 -117.58,113.637 0,7.477 4.15,0.531 c 73.39,9.246 110.6,56.449 110.6,140.289 0,94.969 -49.71,147.27 -139.97,147.27 l -424.6,0 c -20.95,0 -30.3,-9.352 -30.3,-30.317 l 0,-383.668 c 0,-20.957 9.35,-30.308 30.3,-30.308 l 56.11,0 c 20.53,0 29.68,9.351 29.68,30.308 l 0,108.614 221.64,0 111.05,-116.813 c 19.37,-18.777 28.22,-22.109 59.04,-22.109 l 79.69,0 c 11.09,0 18.83,7.218 18.83,17.562 0,6.235 -3.07,12.461 -8.64,17.527" style="fill:#fff;fill-opacity:1;fill-rule:nonzero;stroke:none"/><path id="path3975" d="m 6779.37,251.289 c 0,20.402 -9.91,30.32 -30.31,30.32 l -428.71,0 0,84.664 350.29,0 c 17.88,0 25.85,7.969 25.85,25.848 l 0,31.875 c 0,18.125 -7.73,25.856 -25.85,25.856 l -350.29,0 0,82.117 428.71,0 c 20.4,0 30.31,9.91 30.31,30.308 l 0,36.34 c 0,20.684 -9.63,30.317 -30.31,30.317 l -514.49,0 c -20.97,0 -30.32,-9.352 -30.32,-30.317 l 0,-383.668 c 0,-20.957 9.35,-30.308 30.32,-30.308 l 514.49,0 c 20.68,0 30.31,9.632 30.31,30.308 l 0,36.34" style="fill:#fff;fill-opacity:1;fill-rule:nonzero;stroke:none"/><path id="path3977" d="m 3842.14,363.891 -227.91,0 0,7.57 110.8,160.402 6.31,0 110.8,-160.402 0,-7.57 z m -79.33,265.679 -63.26,0 c -32.28,0 -39.62,-5.64 -54.66,-27.875 L 3377.84,219.434 c -3.01,-4.825 -4.47,-9.305 -4.47,-13.926 0,-9.485 5.91,-20.551 22.55,-20.551 l 59.93,0 c 32.27,0 39.18,5.289 54.67,27.887 l 38.06,54.683 359.2,0 38.04,-54.644 c 15.72,-22.266 23.22,-27.926 55.36,-27.926 l 65.26,0 c 16.14,0 21.88,10.613 21.88,20.551 0,5.418 -1.21,9.777 -3.93,14.121 l -266.88,382.012 c -15.08,22.289 -22.42,27.929 -54.7,27.929" style="fill:#fff;fill-opacity:1;fill-rule:nonzero;stroke:none"/><path id="path3979" d="m 8224.7,364.348 -227.91,0 0,7.57 110.8,160.402 6.31,0 110.8,-160.402 0,-7.57 z m -79.33,265.679 -63.26,0 c -32.28,0 -39.62,-5.64 -54.66,-27.875 L 7760.4,219.887 c -3,-4.824 -4.47,-9.305 -4.47,-13.922 0,-9.485 5.91,-20.551 22.55,-20.551 l 59.93,0 c 32.28,0 39.18,5.289 54.67,27.887 l 38.06,54.679 359.2,0 38.04,-54.64 c 15.72,-22.266 23.22,-27.926 55.37,-27.926 l 65.25,0 c 16.14,0 21.88,10.613 21.88,20.551 0,5.418 -1.21,9.777 -3.93,14.117 l -266.88,382.016 c -15.08,22.289 -22.41,27.929 -54.7,27.929" style="fill:#fff;fill-opacity:1;fill-rule:nonzero;stroke:none"/><path id="path3981" d="m 9359.58,364.348 -227.91,0 0,7.57 110.8,160.402 6.31,0 110.8,-160.402 0,-7.57 z m -79.33,265.679 -63.26,0 c -32.28,0 -39.62,-5.64 -54.66,-27.875 L 8895.28,219.887 c -3,-4.824 -4.47,-9.305 -4.47,-13.922 0,-9.485 5.91,-20.551 22.55,-20.551 l 59.93,0 c 32.28,0 39.18,5.289 54.67,27.887 l 38.06,54.679 359.2,0 38.04,-54.64 c 15.72,-22.266 23.22,-27.926 55.37,-27.926 l 65.25,0 c 16.14,0 21.88,10.613 21.88,20.551 0,5.418 -1.21,9.777 -3.93,14.117 l -266.88,382.016 c -15.08,22.289 -22.42,27.929 -54.7,27.929" style="fill:#fff;fill-opacity:1;fill-rule:nonzero;stroke:none"/><path id="path3983" d="m 7549.7,282.488 -305.66,0 0,249.934 305.66,0 c 34.62,0 57.16,-22.824 56.99,-58.152 -0.12,-25.293 -0.12,-85.629 0,-133.625 0.09,-35.329 -22.37,-58.157 -56.99,-58.157 z m 173.12,198.075 c 0.46,95.972 -49.71,148.828 -139.97,148.828 l -361.54,0 c -2.15,0.281 -4.46,0.422 -6.95,0.422 l -56.1,0 c -20.97,0 -30.32,-9.352 -30.32,-30.309 l 0,-384.098 c 0,-20.957 9.35,-30.308 30.32,-30.308 l 424.3,0.136 c 90.26,0 140.46,53.141 140.26,149.114 -0.12,56.242 -0.12,121.765 0,146.215" style="fill:#fff;fill-opacity:1;fill-rule:nonzero;stroke:none"/><path id="path3985" d="m 1032.16,539.883 -335.543,-373.52 0,373.52 335.543,0 z m -579.949,-373.524 -335.52,373.524 335.52,0 0,-373.524 z M 1138.65,576.348 903.641,872.125 c -8.918,11.227 -22.477,17.766 -36.813,17.766 l -586.086,0 c -14.379,0 -27.969,-6.582 -36.883,-17.864 L 10.1289,576.25 C -4.06641,558.289 -3.25781,532.719 12.0391,515.688 L 460.523,16.4141 l 0.102,0.0937 C 468.195,6.49609 480.172,0 493.691,0 c 22.907,0 41.481,18.5703 41.481,41.4805 l 0,539.8785 c 0,22.911 -18.574,41.481 -41.481,41.481 l -326.914,0 136.735,173.031 540.629,0 137.476,-173.031 -326.48,0 c -22.914,0 -41.481,-18.57 -41.481,-41.481 l 0,-539.8785 C 613.656,18.5703 632.223,0 655.137,0 c 13.316,0 25.14,6.30469 32.73,16.0586 L 687.93,16 1136.81,515.688 c 15.33,17.066 16.11,42.703 1.84,60.66" style="fill:#fff;fill-opacity:1;fill-rule:nonzero;stroke:none"/></g></g><text style="font-size:202.9768219px;font-style:normal;font-variant:normal;font-weight:400;font-stretch:normal;text-align:start;line-height:125%;letter-spacing:0;word-spacing:0;writing-mode:lr-tb;text-anchor:start;fill:#000;fill-opacity:1;stroke:none;font-family:Symbol;-inkscape-font-specification:Symbol" id="text4002" x="150.612" y="-623.734" transform="scale(0.98470837,1.0155291)" xml:space="preserve"><tspan id="tspan4004" x="150.612" y="-623.734">Data Collection</tspan></text><rect style="fill:#e2e6eb;fill-opacity:1;stroke:none" id="rect3818" width="1800" height="129.104" x="0" y="-1300.781" ry=".85"/><path style="fill:#e2e6eb;fill-opacity:1;stroke:none" id="path3048" d="m 1802.8571,348.57144 c 0,132.54834 -404.2229,240 -902.8571,240 -498.63422,0 -902.8571167,-107.45166 -902.8571167,-240 0,-132.54834 404.2228967,-240 902.8571167,-240 498.6342,0 902.8571,107.45166 902.8571,240 z" transform="matrix(0.99683547,0,0,0.50417658,2.8480752,-1351.2384)"/><rect id="rect4006" width="1800" height="38.013" x="0" y="-1307.572" ry="1.58" style="fill:#3e6999;fill-opacity:1;stroke:none"/><text id="text3263" x="1029.617" y="216.661" style="font-size:59.09900284px;text-anchor:middle;fill:#e7ba52;font-family:Impact">Apache</text><text id="text3265" x="1138.067" y="728.226" style="font-size:59.09900284px;text-anchor:middle;fill:#843c39;font-family:Impact">Systemd</text><text id="text3267" x="1084.177" y="457.615" style="font-size:59.09900284px;text-anchor:middle;fill:#e7cb94;font-family:Impact">Nginx</text><text id="text3269" x="1500.693" y="398.169" style="font-size:59.09900284px;text-anchor:middle;fill:#ad494a;font-family:Impact">Syslog</text><text id="text3271" x="838.454" y="475.188" style="font-size:59.09900284px;text-anchor:middle;fill:#d6616b;font-family:Impact">MongoDB</text><text id="text3273" x="889.227" y="589.781" style="font-size:59.09900284px;text-anchor:middle;fill:#e7969c;font-family:Impact">AmazonS3</text><text id="text3275" x="1073.465" y="92.227" style="font-size:59.09900284px;text-anchor:middle;fill:#7b4173;font-family:Impact">CSV</text><text id="text3277" x="1142.211" y="567.611" style="font-size:59.09900284px;text-anchor:middle;fill:#a55194;font-family:Impact">TSV</text><text id="text3279" x="350.203" y="258.79" style="font-size:62.35484314px;text-anchor:middle;fill:#db8613;fill-opacity:1;font-family:Impact">TreasureData</text><text id="text3281" x="1286.848" y="170.252" style="font-size:59.09900284px;text-anchor:middle;fill:#de9ed6;font-family:Impact">HTTP</text><text id="text3283" x="792.77" y="345.542" style="font-size:59.09900284px;text-anchor:middle;fill:#d3b562;fill-opacity:1;font-family:Impact">Elasticsearch</text><text id="text3285" x="895.062" y="131.663" style="font-size:59.09900284px;text-anchor:middle;fill:#5254a3;font-family:Impact">Ruby</text><text id="text3287" x="277.729" y="391.527" style="font-size:59.09900284px;text-anchor:middle;fill:#6b6ecf;font-family:Impact">Python</text><text id="text3289" x="1066.39" y="332.179" style="font-size:59.09900284px;text-anchor:middle;fill:#9c9ede;font-family:Impact">PHP</text><text id="text3291" x="1325.675" y="485.584" style="font-size:59.09900284px;text-anchor:middle;fill:#637939;font-family:Impact">Java</text><text id="text3293" x="1270.111" y="62.254" style="font-size:59.09900284px;text-anchor:middle;fill:#8ca252;font-family:Impact">Scala</text><text id="text3295" x="1464.2" y="33.63" style="font-size:59.09900284px;text-anchor:middle;fill:#cedb9c;font-family:Impact">HDFS</text><text id="text3297" x="497.487" y="370.703" style="font-size:59.09900284px;text-anchor:middle;fill:#8c6d31;font-family:Impact">Riak</text><text id="text3299" x="704.681" y="226.325" style="font-size:59.09900284px;text-anchor:middle;fill:#bd9e39;font-family:Impact">Windows</text><text id="text3301" x="1539.967" y="157.441" style="font-size:59.09900284px;text-anchor:middle;fill:#e7ba52;font-family:Impact">Linux</text><text id="text3303" x="545.575" y="628.247" style="font-size:59.09900284px;text-anchor:middle;fill:#e7cb94;font-family:Impact">RaspberryPi</text><text id="text3305" x="1366.275" y="611.655" style="font-size:59.09900284px;text-anchor:middle;fill:#4695c1;fill-opacity:1;font-family:Impact">GlusterFS</text><text id="text3309" x="316.873" y="516.281" style="font-size:59.09900284px;text-anchor:middle;fill:#d6616b;font-family:Impact">Perl</text><text id="text3311" x="1261.745" y="392.325" style="font-size:59.09900284px;text-anchor:middle;fill:#7b4173;font-family:Impact">JSON</text><text id="text3313" x="778.225" y="756.143" style="font-size:59.09900284px;text-anchor:middle;fill:#a55194;font-family:Impact">HighAvailability</text><text id="text3315" x="564.349" y="494.102" style="font-size:59.09900284px;text-anchor:middle;fill:#ce6dbd;font-family:Impact">Logging</text><text id="text3317" x="1373.362" y="277.622" style="font-size:59.09900284px;text-anchor:middle;fill:#7f9abb;fill-opacity:1;font-family:Impact">Monitoring</text></g></svg>